<?xml version="1.0" encoding="UTF-8"?>
<svg version="1.1" xmlns="http://www.w3.org/2000/svg" width="1487" height="1450">
<path d="M0 0 C490.71 0 981.42 0 1487 0 C1487 478.5 1487 957 1487 1450 C996.29 1450 505.58 1450 0 1450 C0 971.5 0 493 0 0 Z " fill="#FEFEFE" transform="translate(0,0)"/>
<path d="M0 0 C490.71 0 981.42 0 1487 0 C1487 374.22 1487 748.44 1487 1134 C1484.56442695 1131.56442695 1484.15014518 1129.77069232 1483.15234375 1126.48046875 C1482.79922119 1125.32820801 1482.44609863 1124.17594727 1482.08227539 1122.98876953 C1481.70449951 1121.73435059 1481.32672363 1120.47993164 1480.9375 1119.1875 C1480.53641273 1117.87332534 1480.13462739 1116.55936355 1479.73217773 1115.24560547 C1478.89641107 1112.51501661 1478.06366112 1109.78353689 1477.23339844 1107.05126953 C1475.36365374 1100.9028337 1473.46517859 1094.76331308 1471.5625 1088.625 C1471.18786621 1087.41577881 1470.81323242 1086.20655762 1470.42724609 1084.96069336 C1467.86147667 1076.70530018 1465.22976759 1068.47309465 1462.5625 1060.25 C1457.68040541 1045.18870351 1452.89508316 1030.09711292 1448.125 1015 C1447.73370911 1013.76179504 1447.34241821 1012.52359009 1446.93927002 1011.24786377 C1441.78647435 994.93284873 1436.70435486 978.59825386 1431.7076416 962.23483276 C1428.39127948 951.38480605 1424.92463603 940.59910952 1421.28857422 929.85107422 C1418.19660212 920.68404002 1415.29937892 911.46178534 1412.43359375 902.22238159 C1409.31441104 892.16752781 1406.12524816 882.13823446 1402.875 872.125 C1399.47458753 861.6447905 1396.17294952 851.13853855 1392.95727539 840.60009766 C1390.29348999 831.89322627 1387.50710233 823.22923929 1384.70019531 814.56762695 C1381.55165463 804.80887208 1378.53094314 795.01348867 1375.52069092 785.21139526 C1371.22582179 771.23490134 1366.8469848 757.2970248 1362.1875 743.4375 C1361.82399948 742.35625854 1361.82399948 742.35625854 1361.45315552 741.25317383 C1360.9539635 739.76876514 1360.45476193 738.28435966 1359.95555115 736.79995728 C1359.70338333 736.04999481 1359.45121552 735.30003235 1359.19140625 734.52734375 C1358.80826012 733.38801895 1358.80826012 733.38801895 1358.41737366 732.22567749 C1342.17264558 683.83531868 1326.41828453 635.22143243 1311.24707031 586.48272705 C1307.5493486 574.61372675 1303.64487637 562.82017427 1299.68896484 551.03515625 C1295.72251083 539.21256428 1291.84855023 527.36144873 1288 515.5 C1279.43961866 489.13862078 1270.69133564 462.84647584 1261.68704224 436.6333313 C1256.99516751 422.97390614 1252.40184907 409.28335998 1247.86914062 395.5703125 C1247.39981482 394.15362091 1246.93041652 392.73695333 1246.4609375 391.3203125 C1246.24028625 390.65147034 1246.01963501 389.98262817 1245.79229736 389.29351807 C1244.71951734 386.06428266 1243.58122796 382.88952184 1242.2890625 379.7421875 C1241.1577198 376.45786536 1240.55800444 373.60459422 1240.0390625 370.19140625 C1239.11843948 364.15820633 1237.41422451 358.67531316 1235.375 352.9375 C1231.83055476 342.68050024 1228.66949564 332.34834262 1225.70263672 321.90991211 C1224.18787342 316.65933532 1222.71284482 311.75791245 1220 307 C1212.90272976 306.34360506 1206.90624298 308.73862218 1200.25 311 C1197.69745732 311.84514196 1195.14430313 312.68805147 1192.58984375 313.52734375 C1191.94419968 313.74035629 1191.2985556 313.95336884 1190.63334656 314.1728363 C1184.73178856 316.11072871 1178.78136398 317.84645161 1172.8125 319.5625 C1140.85734124 328.86729141 1109.2699174 339.61789821 1078 351 C1075.92475898 351.75064981 1073.84904863 352.49999172 1071.77330017 353.24923706 C1057.7541609 358.31063165 1043.76457953 363.44279882 1029.8203125 368.70751953 C1018.72030443 372.8832189 1007.54004964 376.8332225 996.36523438 380.80322266 C975.88318367 388.08724852 955.47329939 395.56872263 935.06169128 403.04718018 C929.03154877 405.25640508 923.00050741 407.46315696 916.96875 409.66796875 C907.58821183 413.09697449 898.20890558 416.52933539 888.83032227 419.96368408 C885.85247323 421.05401658 882.874479 422.14395194 879.89648438 423.23388672 C873.5135305 425.57043158 867.13143009 427.90929676 860.75 430.25 C859.70233459 430.6342514 858.65466919 431.01850281 857.57525635 431.41439819 C844.29559484 436.28773594 831.02878758 441.18955 817.83886719 446.30175781 C810.97601332 448.94270486 804.05521373 451.38503728 797.10546875 453.78515625 C785.48784794 457.79901528 773.95725078 462.02717563 762.4375 466.3125 C759.40260256 467.43862458 756.36740626 468.56394077 753.33216858 469.68914795 C751.33332876 470.43015405 749.33457864 471.17140216 747.33592224 471.91290283 C739.21228065 474.92558404 731.07677386 477.90487901 722.9375 480.875 C713.1584582 484.44671071 703.41507001 488.10366165 693.6875 491.8125 C685.71509911 494.85155196 677.74054762 497.85407636 669.6809082 500.65356445 C662.38529303 503.19449141 655.12953056 505.84457179 647.875 508.5 C647.21245209 508.7424646 646.54990417 508.9849292 645.86727905 509.23474121 C637.78287447 512.19743151 629.75381757 515.25096504 621.78613281 518.515625 C617.52525149 520.21731394 613.19557748 521.70636693 608.859375 523.203125 C599.1940464 526.56367474 589.57101334 530.0318096 579.96289062 533.55224609 C577.36935712 534.50206657 574.77457189 535.44840849 572.1796875 536.39453125 C563.11524351 539.7074044 554.09406893 543.10971264 545.10896301 546.63204956 C539.63785592 548.77022045 534.13037396 550.75244626 528.5625 552.625 C518.50213303 556.07004347 508.5271331 559.72701039 498.5625 563.4375 C497.81181244 563.71673309 497.06112488 563.99596619 496.28768921 564.28366089 C488.7610579 567.08453904 481.2411302 569.90160609 473.73828125 572.765625 C472.651521 573.1788501 471.56476074 573.5920752 470.44506836 574.01782227 C468.47629008 574.76791505 466.50946126 575.52315669 464.54516602 576.28491211 C460.62374141 577.77846088 456.84006518 579.10463658 452.71875 579.9140625 C446.92303414 581.09783842 441.51526946 583.30869917 436.01663208 585.45068359 C434.08089803 586.20467832 432.14236058 586.95100944 430.20288086 587.6953125 C428.25126426 588.44428747 426.2997831 589.19358299 424.34916687 589.94515991 C419.43515495 591.83836454 414.50737832 593.68915997 409.5625 595.5 C408.46470215 595.90255005 408.46470215 595.90255005 407.34472656 596.31323242 C405.77607742 596.88774934 404.20722113 597.46170091 402.63818359 598.03515625 C399.62901953 599.13567599 396.62110524 600.23957301 393.61328125 601.34375 C383.17196625 605.17571621 372.73021934 609.00635542 362.28030396 612.81481934 C358.66254613 614.13343714 355.04529299 615.45343678 351.42803955 616.7734375 C349.67467427 617.41281222 347.92106207 618.05151033 346.16717529 618.68945312 C336.44722142 622.22509074 326.77009981 625.84419098 317.14054871 629.61941528 C311.65888961 631.76193182 306.14113516 633.74865572 300.5625 635.625 C286.09200047 640.58316926 271.78153359 645.9713506 257.45703125 651.33300781 C253.865384 652.67714395 250.27191976 654.01632764 246.67765808 655.35345459 C218.09400679 665.98857955 189.81438351 677.22167657 161.74339294 689.14254761 C157.01388415 691.15019432 152.27801032 693.14126824 147.53515625 695.1171875 C136.31651478 699.80065873 125.23111618 704.64569475 114.31616211 710.00537109 C113.51057861 710.39934082 112.70499512 710.79331055 111.875 711.19921875 C110.81925781 711.72261841 110.81925781 711.72261841 109.7421875 712.2565918 C108 713 108 713 106 713 C105.67 713.66 105.34 714.32 105 715 C102.93359375 715.6328125 102.93359375 715.6328125 100.4375 716.125 C99.19806641 716.37636719 99.19806641 716.37636719 97.93359375 716.6328125 C97.29550781 716.75398437 96.65742187 716.87515625 96 717 C100.49745586 735.71372265 105.40434081 754.20987685 111.05310059 772.61503601 C113.91389141 781.95276135 116.67082393 791.32155949 119.4375 800.6875 C119.71510162 801.62591736 119.99270325 802.56433472 120.27871704 803.53118896 C124.05234748 816.29172407 127.74821631 829.07202513 131.375 841.875 C134.22279604 851.92622559 137.16524526 861.93107063 140.39257812 871.8684082 C143.19234332 880.50509647 145.78638459 889.20067826 148.36547852 897.90551758 C151.88144367 909.72816855 155.55579091 921.50148661 159.22032642 933.27876759 C161.25889415 939.83045803 163.29168324 946.38393625 165.32421875 952.9375 C167.5618971 960.15033365 169.80003002 967.36302604 172.0390625 974.57543945 C172.33353995 975.52401872 172.33353995 975.52401872 172.63396645 976.49176121 C173.62169369 979.67341813 174.60946035 982.8550628 175.59725952 986.03669739 C177.72956599 992.90527556 179.86016448 999.77437897 181.98872375 1006.64411926 C188.01762664 1026.09916337 194.09652795 1045.53267016 200.3828125 1064.90625 C206.00679089 1082.24338705 211.48925592 1099.62662556 217 1117 C217.2779541 1117.87617981 217.5559082 1118.75235962 217.84228516 1119.65509033 C222.99425701 1135.89819733 228.14537901 1152.14055857 233.125 1168.4375 C237.92108602 1184.12835264 243.01622589 1199.72269976 248.08007812 1215.32861328 C253.1941788 1231.10517717 258.18174456 1246.91920127 263.125 1262.75 C263.44256256 1263.76692932 263.76012512 1264.78385864 264.08731079 1265.831604 C267.39579766 1276.42889416 270.69857007 1287.02794978 273.99362183 1297.62942505 C275.61895484 1302.85767554 277.24630122 1308.08529708 278.875 1313.3125 C279.3507547 1314.83955566 279.3507547 1314.83955566 279.83612061 1316.39746094 C283.68877536 1328.75128921 287.63152313 1341.06139547 291.79052734 1353.31591797 C295.39163234 1364.00060832 298.63781919 1374.79000076 301.90625 1385.57983398 C305.07780934 1396.04069203 308.34713579 1406.4628748 311.74414062 1416.85327148 C315.32738728 1427.85832662 318.62708802 1438.91757493 322 1450 C215.74 1450 109.48 1450 0 1450 C0 971.5 0 493 0 0 Z " fill="#FEFEFE" transform="translate(0,0)"/>
<path d="M0 0 C2.93089212 3.84864622 4.28540304 8.31976543 5.75 12.875 C6.00386475 13.64948486 6.25772949 14.42396973 6.51928711 15.22192383 C8.93814169 22.66630279 11.2034663 30.15800874 13.45288086 37.6550293 C15.44983137 44.28869278 17.60319976 50.840256 19.95703125 57.35546875 C20.85804442 60.50395298 21.39109257 63.41562497 21.86328125 66.64453125 C22.91325993 73.27011725 25.01191244 79.24135939 27.375 85.5 C28.28468654 87.9779848 29.19154555 90.45680049 30.09375 92.9375 C30.4481868 93.90907043 30.4481868 93.90907043 30.80978394 94.90026855 C33.64726402 102.71661951 36.26237925 110.6062545 38.875 118.5 C39.12779724 119.26281281 39.38059448 120.02562561 39.64105225 120.81155396 C40.67337282 123.92682618 41.70505483 127.04230745 42.7350769 130.15834045 C44.38856272 135.15983767 46.05273295 140.15762026 47.7265625 145.15234375 C56.33907938 170.86477354 64.77191229 196.63626659 73.20547485 222.4078064 C75.60585934 229.74284636 78.00861892 237.07710086 80.41464233 244.41029358 C88.00435062 267.54441255 95.52422372 290.69855886 102.92044067 313.89529419 C110.10997433 336.43641186 117.4776803 358.91815902 124.8535614 381.39884949 C128.69576078 393.11321514 132.50807668 404.83721284 136.31152344 416.56420898 C136.82874362 418.15870192 137.34599616 419.75318437 137.86328125 421.34765625 C138.11818329 422.13339523 138.37308533 422.91913422 138.63571167 423.72868347 C140.55285394 429.63370306 142.48370689 435.53416286 144.41796875 441.43359375 C150.67129065 460.52137743 156.79772003 479.64090454 162.730896 498.83074951 C168.23346951 516.62559889 173.8858505 534.37048727 179.58349609 552.10375977 C183.10187481 563.05527463 186.59268478 574.01337149 190 585 C195.15076414 601.59641105 200.35778436 618.16794411 205.75 634.6875 C210.32047122 648.69484883 214.75895832 662.74011838 219.125 676.8125 C219.57057251 678.24863144 219.57057251 678.24863144 220.02514648 679.71377563 C221.48127068 684.40888224 222.93589579 689.10445157 224.38964844 693.80029297 C226.66864522 701.16095546 228.95470819 708.51940223 231.25 715.875 C231.44867676 716.51169617 231.64735352 717.14839233 231.85205078 717.80438232 C236.09097842 731.37596943 240.46419886 744.90335217 244.84472656 758.4296875 C250.19244916 774.95654617 255.43310045 791.51535058 260.58789062 808.10327148 C260.7923027 808.75996323 260.99671478 809.41665497 261.20732117 810.09324646 C261.76170501 811.87445027 262.31509435 813.65596352 262.8684082 815.4375 C263.45205951 817.27496275 264.04773127 819.11369921 264.79399109 820.89134216 C267.72473959 828.26203075 267.37977253 835.73883146 267.29296875 843.53515625 C267.28736306 845.02444529 267.28309757 846.51373992 267.28010559 848.0030365 C267.26873325 851.89439573 267.23933328 855.78541101 267.20599365 859.67663574 C267.17512711 863.65872548 267.16156507 867.6408716 267.14648438 871.62304688 C267.11445488 879.4155202 267.06335272 887.20771163 267 895 C265.06760464 892.10140695 264.19590223 889.8768069 263.15234375 886.58398438 C262.79914063 885.4773645 262.4459375 884.37074463 262.08203125 883.23059082 C261.70433594 882.03043335 261.32664062 880.83027588 260.9375 879.59375 C260.54046875 878.34493042 260.1434375 877.09611084 259.734375 875.80944824 C258.68928069 872.52144168 257.65001117 869.2316255 256.61248779 865.94122314 C255.65173717 862.89621334 254.68691488 859.85249418 253.72265625 856.80859375 C251.09875956 848.51733346 248.48696371 840.22227149 245.875 831.92724609 C241.75282215 818.83968926 237.61095274 805.75927041 233.40234375 792.69921875 C229.71914353 781.26806693 226.09684735 769.81909573 222.51397705 758.35614014 C220.80241679 752.88110161 219.08671045 747.4073623 217.37109375 741.93359375 C217.01390259 740.79384094 216.65671143 739.65408813 216.28869629 738.47979736 C210.38131918 719.63857897 204.42257989 700.81352076 198.47151184 681.98606873 C195.89552374 673.83584844 193.32204032 665.68484027 190.75014114 657.53332901 C189.34500105 653.07995629 187.9395133 648.62669327 186.53411865 644.17340088 C185.77797743 641.77708898 185.02198881 639.38072893 184.26617432 636.98431396 C180.52405143 625.11988847 176.76866194 613.26011846 172.96875 601.4140625 C168.629127 587.88192333 164.38600563 574.32002555 160.15087891 560.75488281 C156.20662566 548.1261621 152.20889958 535.51646707 148.1328125 522.9296875 C143.11223793 507.42321266 138.23729529 491.87286658 133.3918457 476.31091309 C131.67500844 470.79829166 129.95520348 465.28659478 128.23591232 459.77473831 C127.61478548 457.78297475 126.99408319 455.79107926 126.3734436 453.79916382 C124.44504983 447.6124846 122.50631468 441.42940477 120.54037476 435.25454712 C117.22817129 424.84795336 114.11493496 414.38582101 111.0223999 403.91210938 C104.72927587 382.61188053 104.72927587 382.61188053 98.03775024 361.43453979 C95.10522974 352.42427672 92.31960184 343.37048339 89.5390625 334.3125 C89.01079601 332.5935832 88.48251609 330.87467053 87.95422363 329.15576172 C81.84030523 309.25304448 75.77735198 289.33478038 69.71356201 269.41674805 C67.88258244 263.40264174 66.05108862 257.38869239 64.21875 251.375 C63.83350788 250.11063079 63.83350788 250.11063079 63.44048309 248.82071877 C58.31783913 232.01214234 53.15057018 215.21741093 47.97786331 198.42418766 C44.88790165 188.39123762 41.81042865 178.35449942 38.75 168.3125 C38.45906464 167.35826141 38.16812927 166.40402283 37.86837769 165.42086792 C33.9976291 152.71304555 30.2183572 139.98737057 26.61523438 127.20092773 C24.74367344 120.56443302 22.78668698 113.96254151 20.75 107.375 C13.18962622 82.79594251 5.93043693 58.07347638 0.1796875 33.00390625 C-1.09866846 27.45491779 -2.65696875 22.01380449 -4.3359375 16.57421875 C-5 14 -5 14 -5 10 C-16.30534176 14.35630748 -27.4117942 19.03918783 -38.4375 24.0625 C-54.45084809 31.33582841 -70.73384695 37.90142322 -87.06445312 44.42431641 C-90.17878666 45.66910966 -93.28699674 46.9279201 -96.390625 48.19921875 C-125.00553917 59.88874191 -154.21058282 70.19967102 -183.21557617 80.86642456 C-198.39071822 86.44745296 -213.55457245 92.05546144 -228.6875 97.75 C-247.50847593 104.83140243 -266.36780849 111.80689086 -285.23443604 118.76564026 C-291.96359333 121.24776905 -298.69124962 123.73392796 -305.41796875 126.22265625 C-334.29347163 136.9049617 -363.19059189 147.52782603 -392.09362793 158.13537598 C-399.29179019 160.77719272 -406.48973672 163.41959639 -413.6875 166.0625 C-414.70468109 166.43593536 -415.72186218 166.80937073 -416.76986694 167.19412231 C-427.64159458 171.18589368 -438.51068201 175.18456268 -449.37109375 179.20703125 C-450.30034164 179.55118576 -451.22958954 179.89534027 -452.18699646 180.24992371 C-453.11569046 180.59388687 -454.04438446 180.93785004 -455.0012207 181.29223633 C-479.93345108 190.52636567 -504.91498698 199.62171771 -529.90583801 208.69584656 C-551.40112063 216.50211342 -572.85476023 224.42012195 -594.30233765 232.35632324 C-604.65458434 236.18671257 -615.00875694 240.01127135 -625.37890625 243.79296875 C-626.20952072 244.09588333 -627.04013519 244.39879791 -627.8959198 244.71089172 C-631.21564094 245.9212946 -634.5354286 247.13151483 -637.85531616 248.34146118 C-648.06274291 252.06414032 -658.2518601 255.83246483 -668.421875 259.65625 C-669.47956085 260.05385025 -670.5372467 260.4514505 -671.62698364 260.86109924 C-676.75239333 262.78908569 -681.8761193 264.72140426 -686.99755859 266.65991211 C-697.61148484 270.66769656 -708.26352558 274.52503604 -718.98907471 278.22419739 C-726.32513753 280.75523975 -733.6102249 283.39522987 -740.875 286.125 C-749.56908026 289.3720222 -758.27717684 292.54785875 -767.05859375 295.55078125 C-770.267613 296.68843094 -773.38734916 297.99601039 -776.52075195 299.32714844 C-782.48636322 301.82133552 -788.51489643 304.05848706 -794.609375 306.21484375 C-796.81071313 307.00067374 -799.01187954 307.78698493 -801.21289062 308.57373047 C-802.33381104 308.97372253 -803.45473145 309.3737146 -804.60961914 309.78582764 C-813.40424056 312.93538125 -822.17476246 316.1519771 -830.94921875 319.35717773 C-834.26248741 320.56705994 -837.57654865 321.77475412 -840.890625 322.98242188 C-854.30389953 327.87712834 -867.6727372 332.87569039 -881 338 C-880.40146916 341.23727656 -879.6449233 344.29761389 -878.57983398 347.41162109 C-878.14585548 348.68808754 -878.14585548 348.68808754 -877.70310974 349.99034119 C-877.38729446 350.90876297 -877.07147919 351.82718475 -876.74609375 352.7734375 C-876.41428604 353.74652359 -876.08247833 354.71960968 -875.74061584 355.72218323 C-875.02102786 357.83112772 -874.29997748 359.93957368 -873.57763672 362.0475769 C-872.41601389 365.43770596 -871.25832814 368.82915802 -870.1015625 372.22094727 C-867.083883 381.06604228 -864.05824234 389.90840962 -861.03173828 398.75048828 C-843.23233446 450.75984477 -825.75559595 502.89136673 -808.89801025 555.21417236 C-807.92326328 558.23805439 -806.94685006 561.26139528 -805.97021484 564.28466797 C-792.36663526 606.40501773 -778.88412981 648.56737018 -765.85644531 690.86987305 C-763.27166836 699.22354417 -760.54357962 707.52556507 -757.73583984 715.80688477 C-755.73707473 721.71164589 -753.85801807 727.64408206 -752.03833008 733.60644531 C-750.98728173 737.04156689 -749.91846322 740.47065032 -748.84375 743.8984375 C-748.46718262 745.09976318 -748.09061523 746.30108887 -747.70263672 747.53881836 C-747.50732361 748.16174774 -747.3120105 748.78467712 -747.11077881 749.42648315 C-743.24958667 761.74452337 -739.43369562 774.0758546 -735.64819336 786.4173584 C-730.26320661 803.96915055 -724.76154697 821.47715009 -719.06542969 838.93081665 C-717.85474582 842.64093053 -716.64570896 846.35157948 -715.4375 850.0625 C-715.18840881 850.82735718 -714.93931763 851.59221436 -714.68267822 852.38024902 C-709.80175234 867.38438903 -705.0897401 882.439627 -700.40090942 897.50473022 C-696.62082734 909.64901623 -692.81103308 921.78028851 -688.875 933.875 C-684.96838505 945.88216799 -681.21760454 957.93323896 -677.5 970 C-673.43083931 983.20699194 -669.29526993 996.38552487 -665.01953125 1009.52734375 C-660.92284623 1022.15661478 -656.96419568 1034.82862338 -653 1047.5 C-648.63376231 1061.45405429 -644.26096395 1075.40447408 -639.75 1089.3125 C-636.19885892 1100.26425552 -632.68196979 1111.22628652 -629.20324707 1122.20126343 C-628.65472101 1123.93061614 -628.10517407 1125.65964541 -627.55456543 1127.38833618 C-626.79136562 1129.78535 -626.03188983 1132.18351171 -625.2734375 1134.58203125 C-624.92739975 1135.66550842 -624.92739975 1135.66550842 -624.57437134 1136.77087402 C-623 1141.77130807 -623 1141.77130807 -623 1144 C-713.75 1144 -804.5 1144 -898 1144 C-900.46720699 1137.83198252 -902.77496155 1131.90372735 -904.6640625 1125.58203125 C-904.89750366 1124.81497864 -905.13094482 1124.04792603 -905.37145996 1123.25762939 C-905.86873047 1121.62298311 -906.36419958 1119.98778788 -906.85797119 1118.3520813 C-908.17640657 1113.98682957 -909.50996611 1109.62620731 -910.84375 1105.265625 C-911.11156281 1104.38943008 -911.37937561 1103.51323517 -911.65530396 1102.61048889 C-914.06835672 1094.73575836 -916.57760465 1086.89464575 -919.125 1079.0625 C-922.48463262 1068.72851646 -925.7744245 1058.37635441 -929 1048 C-932.09014192 1038.06473679 -935.22653116 1028.14706552 -938.4375 1018.25 C-943.44017689 1002.81240504 -948.34986067 987.34539368 -953.25 971.875 C-953.45599571 971.22472462 -953.66199142 970.57444923 -953.87422943 969.90446854 C-959.78129552 951.25524176 -965.63442292 932.5898942 -971.42504883 913.90414429 C-975.35242724 901.23417685 -979.3569268 888.5929149 -983.45532227 875.97729492 C-986.58492615 866.33192666 -989.61915265 856.65924888 -992.62911987 846.97610474 C-995.6265511 837.33783427 -998.69288097 827.72459938 -1001.8125 818.125 C-1005.81987905 805.783804 -1009.67976568 793.40031604 -1013.5 781 C-1017.16009241 769.12255861 -1020.84553204 757.2576049 -1024.6875 745.4375 C-1038.15811111 703.93701907 -1051.04940036 662.25793154 -1063.78385925 620.52705383 C-1066.80037975 610.64423322 -1069.83910536 600.76838676 -1072.88619995 590.8949585 C-1082.29334704 560.3999323 -1091.31649944 529.7949133 -1100.30436707 499.17417908 C-1102.15358062 492.87594561 -1104.00859285 486.57947248 -1105.87109375 480.28515625 C-1109.99044659 466.35727857 -1114.05198475 452.41502427 -1118 438.4375 C-1118.19035828 437.76619049 -1118.38071655 437.09488098 -1118.57684326 436.40322876 C-1124 417.25294776 -1124 417.25294776 -1124 411 C-1123.12492798 410.66693848 -1123.12492798 410.66693848 -1122.23217773 410.32714844 C-1115.32972338 407.64018693 -1108.70967176 404.51026225 -1102.0625 401.25 C-1092.49623197 396.61630626 -1082.88420388 392.27657239 -1073.04833984 388.25390625 C-1069.28251257 386.70486822 -1065.52587901 385.13435781 -1061.76953125 383.5625 C-1053.22438397 379.98772781 -1044.67211105 376.43031894 -1036.11700439 372.87945557 C-1034.17487529 372.07264748 -1032.23350956 371.26403999 -1030.29248047 370.45458984 C-1013.29027055 363.3750293 -996.11142009 356.8598663 -978.82675171 350.51152039 C-973.46695714 348.54257574 -968.11272239 346.55911274 -962.76171875 344.56640625 C-962.0061116 344.28503815 -961.25050446 344.00367004 -960.47200012 343.71377563 C-958.95979233 343.15063013 -957.44759034 342.58746902 -955.93539429 342.02429199 C-944.15504584 337.63898735 -932.36190676 333.29208487 -920.54296875 329.01171875 C-912.57835318 326.12573408 -904.62731257 323.20258595 -896.67480469 320.28344727 C-895.38867314 319.81135723 -894.10254032 319.33927066 -892.81640625 318.8671875 C-892.17448334 318.63154587 -891.53256042 318.39590424 -890.8711853 318.15312195 C-886.29975198 316.47552944 -881.72641086 314.80320853 -877.15234375 313.1328125 C-862.07771732 307.6252034 -847.04984429 302.00903114 -832.06640625 296.2578125 C-824.95980454 293.53743593 -817.82021763 290.92696079 -810.64453125 288.39453125 C-809.97649475 288.15856735 -809.30845825 287.92260345 -808.62017822 287.67948914 C-805.25776751 286.49257524 -801.89400427 285.30974831 -798.52783203 284.13354492 C-792.04163301 281.85605853 -785.63962402 279.4677949 -779.28515625 276.84375 C-773.91546846 274.63601937 -768.59220674 273.05187281 -762.93652344 271.75244141 C-757.50236428 270.36001719 -752.34060099 268.23292812 -747.125 266.1875 C-744.58271649 265.20650015 -742.03986496 264.22712175 -739.49609375 263.25 C-738.8267128 262.99224289 -738.15733185 262.73448578 -737.46766663 262.46891785 C-728.74151983 259.11733426 -719.96295116 255.90719903 -711.1875 252.6875 C-708.07670386 251.54589689 -704.96601104 250.40401335 -701.85546875 249.26171875 C-701.10581848 248.98658951 -700.35616821 248.71146027 -699.58380127 248.42799377 C-694.72020038 246.64039621 -689.86774093 244.82495483 -685.01953125 242.99609375 C-677.03031434 239.98679579 -668.99399322 237.11442044 -660.95217896 234.24926758 C-641.91124491 227.46066381 -622.97081525 220.429342 -604.06735229 213.26782227 C-593.59468601 209.30293387 -583.06958675 205.51313812 -572.49731445 201.82275391 C-564.65813619 199.08313418 -556.90423573 196.20626845 -549.20768738 193.08709717 C-544.4336244 191.15662817 -539.62638132 189.40070891 -534.75 187.75 C-526.12647399 184.7748545 -517.56810221 181.64417835 -509.01928711 178.46142578 C-501.18653539 175.54743499 -493.34633351 172.65458602 -485.5 169.77734375 C-484.47518524 169.40152161 -483.45037048 169.02569946 -482.39450073 168.63848877 C-480.27519704 167.86136226 -478.15588334 167.08426302 -476.03656006 166.30718994 C-460.73309281 160.69575445 -445.43856457 155.06497276 -430.1875 149.3125 C-421.5299204 146.04760222 -412.85850045 142.85673838 -404.10961914 139.84521484 C-395.40403025 136.83000936 -386.76727466 133.62852513 -378.125 130.4375 C-377.31254822 130.13752106 -376.50009644 129.83754211 -375.6630249 129.5284729 C-371.46671768 127.97862465 -367.27086111 126.42756032 -363.07519531 124.87597656 C-354.88595599 121.84805883 -346.69287041 118.83057545 -338.5 115.8125 C-336.8892415 115.21899424 -335.27848304 114.62548838 -333.66772461 114.03198242 C-323.16378302 110.16222237 -312.65668813 106.30119064 -302.14477539 102.453125 C-295.35771637 99.96778579 -288.57344605 97.47511937 -281.7926178 94.9728241 C-259.50575309 86.74882063 -237.19532938 78.60760092 -214.79833984 70.68798828 C-202.47344742 66.32806027 -190.18368992 61.88887792 -177.9375 57.3125 C-134.25576188 41.00378926 -90.3254272 25.48080006 -45.67427063 12.0184021 C-38.4927155 9.85265798 -31.32716002 7.63664466 -24.16485596 5.40817261 C-22.30597728 4.82991339 -20.4466959 4.25294923 -18.58740234 3.67602539 C-5.01792164 -0.53763446 -5.01792164 -0.53763446 0 0 Z " fill="#B6B6B6" transform="translate(1220,306)"/>
<path d="M0 0 C0.66 0.66 1.32 1.32 2 2 C1.96810164 3.97769822 1.93105275 5.95771354 1.77734375 7.9296875 C2.07425128 10.69040661 3.30861563 11.79619167 5 14 C6.23878692 16.61197054 7.3935996 19.20781014 8.5 21.875 C8.83604248 22.67711914 9.17208496 23.47923828 9.51831055 24.30566406 C13.36941192 33.65623852 16.80154698 43.16763988 20.23046875 52.67919922 C22.73045243 59.65006865 22.73045243 59.65006865 25.52734375 66.50390625 C27.68833705 71.6341158 29.36451127 76.91457296 31.09860229 82.20205688 C32.2110475 85.59276069 33.33390386 88.98000969 34.45703125 92.3671875 C34.78967735 93.37103233 34.78967735 93.37103233 35.12904358 94.39515686 C36.84269667 99.55472933 38.61852964 104.68929895 40.4375 109.8125 C45.234273 123.38022894 49.73692525 137.04843639 54.24560547 150.71398926 C54.75201876 152.24855263 55.25886051 153.78297466 55.76611328 155.31726074 C71.27324335 202.22314548 71.27324335 202.22314548 76.9375 225.9375 C80.53647107 240.85215489 85.3112318 255.72457715 90.50585938 270.15332031 C91.36781568 273.37458388 90.92585027 275.85210909 90 279 C86.85437051 282.99699408 83.02904334 284.41836047 78.36328125 286.0390625 C77.59210968 286.31739929 76.82093811 286.59573608 76.02639771 286.88250732 C73.45863928 287.80689147 70.8856162 288.7156481 68.3125 289.625 C66.49506626 290.27688255 64.67809942 290.93006807 62.86157227 291.58447266 C58.96740485 292.98674915 55.07156504 294.38424346 51.17480469 295.77929688 C41.62222624 299.20667114 32.09962598 302.7159818 22.57528687 306.22088623 C19.53627944 307.3386678 16.49641954 308.45409806 13.45629883 309.56884766 C3.48790414 313.22688939 -6.46550796 316.92110033 -16.40234375 320.6640625 C-23.76426723 323.43555056 -31.14179568 326.14111468 -38.56881714 328.73269653 C-47.43965163 331.83646411 -56.24461489 335.12072261 -65.05688477 338.38623047 C-68.06154229 339.49964511 -71.06684161 340.61131245 -74.07226562 341.72265625 C-79.71648648 343.81068835 -85.35894485 345.90343098 -91 348 C-91.77214844 348.28693726 -92.54429687 348.57387451 -93.33984375 348.86950684 C-102.38907786 352.23618179 -111.39711011 355.69678526 -120.375 359.25 C-130.32438139 363.17324087 -140.29131375 367.04676659 -150.27905273 370.87133789 C-157.2220555 373.53494037 -164.15314271 376.22743798 -171.078125 378.9375 C-171.96949661 379.2861763 -172.86086823 379.6348526 -173.7792511 379.99409485 C-178.21148584 381.72818202 -182.64286401 383.46441078 -187.07299805 385.20385742 C-196.05297155 388.72311417 -205.05757636 392.15511601 -214.11550903 395.46873474 C-221.18609392 398.05753472 -228.21649927 400.74446395 -235.24200439 403.45275879 C-274.05066156 418.39597371 -313.21859732 432.52201097 -352.6875 445.625 C-353.79282074 445.99241302 -353.79282074 445.99241302 -354.92047119 446.36724854 C-361.75245116 448.63581405 -368.59075502 450.87985886 -375.45703125 453.04296875 C-384.17516733 455.81318298 -391.63121446 458.63011604 -399.37109375 463.5625 C-402.96514033 465.5277439 -406.35403749 466.14268133 -410.38671875 466.65625 C-413.72847913 467.09582386 -416.89097813 467.99243303 -420.125 468.92578125 C-422 469 -422 469 -423.55801392 467.81210327 C-425.3689962 465.53629288 -425.56592984 463.95250354 -425.94677734 461.08056641 C-426.96460663 454.71883985 -428.81089992 448.81101533 -430.8515625 442.7109375 C-431.22928802 441.56823395 -431.60701355 440.4255304 -431.9961853 439.24819946 C-432.79429121 436.84177958 -433.59624436 434.43663257 -434.40185547 432.03271484 C-435.6132349 428.41018257 -436.80535578 424.78170521 -437.99609375 421.15234375 C-441.82934372 409.58820534 -445.87437261 398.40193238 -451.29345703 387.48486328 C-453.56595441 382.84428708 -455.38330978 378.10914255 -457.125 373.25 C-457.87367752 371.20394269 -458.62378053 369.15840664 -459.375 367.11328125 C-459.78363281 365.99775879 -460.19226563 364.88223633 -460.61328125 363.73291016 C-462.1893602 359.49026101 -463.80973213 355.26598616 -465.4375 351.04296875 C-476.96235995 321.08288678 -476.96235995 321.08288678 -480.69580078 307.61499023 C-482.11185464 302.57023474 -483.86246816 297.74761867 -485.8515625 292.90234375 C-489.13598099 284.87810716 -491.80779087 276.71501046 -494.375 268.4375 C-494.72634003 267.31471649 -494.72634003 267.31471649 -495.08477783 266.16925049 C-499.18323339 253.05523161 -502.82509772 239.85640257 -506.27734375 226.55859375 C-508.05817243 219.70629611 -510.0281042 212.92463401 -512.08984375 206.15234375 C-515.43062089 194.58149759 -515.43062089 194.58149759 -514 190 C-503.79471305 179.05381399 -484.69394735 173.46173657 -470.9375 168.25 C-469.36157645 167.6455311 -467.78598033 167.04020795 -466.21069336 166.43408203 C-462.23362821 164.90544995 -458.25349375 163.38500902 -454.27233887 161.86706543 C-448.19751375 159.54907011 -442.12899845 157.21468702 -436.0625 154.875 C-435.43078888 154.63173981 -434.79907776 154.38847961 -434.14822388 154.1378479 C-424.83055663 150.54565392 -415.58825706 146.79047455 -406.375 142.9375 C-393.25086237 137.45184345 -379.99989979 132.36319107 -366.67773438 127.38085938 C-362.88985126 125.95864304 -359.10803825 124.5213434 -355.328125 123.078125 C-354.0462302 122.58925771 -352.76432921 122.10040667 -351.48242188 121.61157227 C-349.09786324 120.70176519 -346.71370762 119.79090067 -344.33007812 118.87866211 C-337.53253856 116.2918868 -330.70332013 113.81937206 -323.84025574 111.41394043 C-318.08784467 109.39408829 -312.35556159 107.32215085 -306.62890625 105.23046875 C-305.72766022 104.90151108 -304.82641418 104.57255341 -303.89785767 104.23362732 C-300.20680711 102.88574017 -296.5161431 101.53680891 -292.82641602 100.18530273 C-279.80039435 95.41627648 -266.72778362 90.80258437 -253.61303711 86.28344727 C-242.72479182 82.52992677 -231.86348235 78.69945805 -221 74.875 C-219.83779938 74.46614563 -218.67559875 74.05729126 -217.47817993 73.63604736 C-203.0375936 68.55523451 -188.60891665 63.44303506 -174.19909668 58.27563477 C-143.43646831 47.24444779 -112.54178806 36.59039917 -81.625 26 C-80.84565094 25.73300293 -80.06630188 25.46600586 -79.26333618 25.19091797 C-70.60761181 22.22805501 -61.93908725 19.31227489 -53.24584961 16.4609375 C-41.12413817 12.48208926 -29.18246785 8.14450867 -17.28686523 3.54052734 C-16.13130127 3.09402832 -14.9757373 2.6475293 -13.78515625 2.1875 C-12.76301025 1.78917969 -11.74086426 1.39085937 -10.68774414 0.98046875 C-3.98975076 -1.46290861 -3.98975076 -1.46290861 0 0 Z " fill="#FEFEFE" transform="translate(1088,554)"/>
<path d="M0 0 C2.93089212 3.84864622 4.28540304 8.31976543 5.75 12.875 C6.00386475 13.64948486 6.25772949 14.42396973 6.51928711 15.22192383 C8.93814169 22.66630279 11.2034663 30.15800874 13.45288086 37.6550293 C15.44983137 44.28869278 17.60319976 50.840256 19.95703125 57.35546875 C20.85804442 60.50395298 21.39109257 63.41562497 21.86328125 66.64453125 C22.91325993 73.27011725 25.01191244 79.24135939 27.375 85.5 C28.28468654 87.9779848 29.19154555 90.45680049 30.09375 92.9375 C30.4481868 93.90907043 30.4481868 93.90907043 30.80978394 94.90026855 C33.64726402 102.71661951 36.26237925 110.6062545 38.875 118.5 C39.12779724 119.26281281 39.38059448 120.02562561 39.64105225 120.81155396 C40.67337282 123.92682618 41.70505483 127.04230745 42.7350769 130.15834045 C44.38856272 135.15983767 46.05273295 140.15762026 47.7265625 145.15234375 C56.33907938 170.86477354 64.77191229 196.63626659 73.20547485 222.4078064 C75.60585934 229.74284636 78.00861892 237.07710086 80.41464233 244.41029358 C88.00435062 267.54441255 95.52422372 290.69855886 102.92044067 313.89529419 C110.10997433 336.43641186 117.4776803 358.91815902 124.8535614 381.39884949 C128.69576078 393.11321514 132.50807668 404.83721284 136.31152344 416.56420898 C136.82874362 418.15870192 137.34599616 419.75318437 137.86328125 421.34765625 C138.11818329 422.13339523 138.37308533 422.91913422 138.63571167 423.72868347 C140.55285394 429.63370306 142.48370689 435.53416286 144.41796875 441.43359375 C150.67129065 460.52137743 156.79772003 479.64090454 162.730896 498.83074951 C168.23346951 516.62559889 173.8858505 534.37048727 179.58349609 552.10375977 C183.10187481 563.05527463 186.59268478 574.01337149 190 585 C195.15076414 601.59641105 200.35778436 618.16794411 205.75 634.6875 C210.32047122 648.69484883 214.75895832 662.74011838 219.125 676.8125 C219.57057251 678.24863144 219.57057251 678.24863144 220.02514648 679.71377563 C221.48127068 684.40888224 222.93589579 689.10445157 224.38964844 693.80029297 C226.66864522 701.16095546 228.95470819 708.51940223 231.25 715.875 C231.44867676 716.51169617 231.64735352 717.14839233 231.85205078 717.80438232 C236.09097842 731.37596943 240.46419886 744.90335217 244.84472656 758.4296875 C250.19244916 774.95654617 255.43310045 791.51535058 260.58789062 808.10327148 C260.7923027 808.75996323 260.99671478 809.41665497 261.20732117 810.09324646 C261.76170501 811.87445027 262.31509435 813.65596352 262.8684082 815.4375 C263.45205951 817.27496275 264.04773127 819.11369921 264.79399109 820.89134216 C267.72473959 828.26203075 267.37977253 835.73883146 267.29296875 843.53515625 C267.28736306 845.02444529 267.28309757 846.51373992 267.28010559 848.0030365 C267.26873325 851.89439573 267.23933328 855.78541101 267.20599365 859.67663574 C267.17512711 863.65872548 267.16156507 867.6408716 267.14648438 871.62304688 C267.11445488 879.4155202 267.06335272 887.20771163 267 895 C265.06760464 892.10140695 264.19590223 889.8768069 263.15234375 886.58398438 C262.79914063 885.4773645 262.4459375 884.37074463 262.08203125 883.23059082 C261.70433594 882.03043335 261.32664062 880.83027588 260.9375 879.59375 C260.54046875 878.34493042 260.1434375 877.09611084 259.734375 875.80944824 C258.68928069 872.52144168 257.65001117 869.2316255 256.61248779 865.94122314 C255.65173717 862.89621334 254.68691488 859.85249418 253.72265625 856.80859375 C251.09875956 848.51733346 248.48696371 840.22227149 245.875 831.92724609 C241.75282215 818.83968926 237.61095274 805.75927041 233.40234375 792.69921875 C229.71914353 781.26806693 226.09684735 769.81909573 222.51397705 758.35614014 C220.80241679 752.88110161 219.08671045 747.4073623 217.37109375 741.93359375 C217.01390259 740.79384094 216.65671143 739.65408813 216.28869629 738.47979736 C210.38131918 719.63857897 204.42257989 700.81352076 198.47151184 681.98606873 C195.89552374 673.83584844 193.32204032 665.68484027 190.75014114 657.53332901 C189.34500105 653.07995629 187.9395133 648.62669327 186.53411865 644.17340088 C185.77797743 641.77708898 185.02198881 639.38072893 184.26617432 636.98431396 C180.52405143 625.11988847 176.76866194 613.26011846 172.96875 601.4140625 C168.629127 587.88192333 164.38600563 574.32002555 160.15087891 560.75488281 C156.20662566 548.1261621 152.20889958 535.51646707 148.1328125 522.9296875 C143.11223793 507.42321266 138.23729529 491.87286658 133.3918457 476.31091309 C131.67500844 470.79829166 129.95520348 465.28659478 128.23591232 459.77473831 C127.61478548 457.78297475 126.99408319 455.79107926 126.3734436 453.79916382 C124.44504983 447.6124846 122.50631468 441.42940477 120.54037476 435.25454712 C117.22817129 424.84795336 114.11493496 414.38582101 111.0223999 403.91210938 C104.72927587 382.61188053 104.72927587 382.61188053 98.03775024 361.43453979 C95.10522974 352.42427672 92.31960184 343.37048339 89.5390625 334.3125 C89.01079601 332.5935832 88.48251609 330.87467053 87.95422363 329.15576172 C81.84030523 309.25304448 75.77735198 289.33478038 69.71356201 269.41674805 C67.88258244 263.40264174 66.05108862 257.38869239 64.21875 251.375 C63.83350788 250.11063079 63.83350788 250.11063079 63.44048309 248.82071877 C58.31783913 232.01214234 53.15057018 215.21741093 47.97786331 198.42418766 C44.88790165 188.39123762 41.81042865 178.35449942 38.75 168.3125 C38.45906464 167.35826141 38.16812927 166.40402283 37.86837769 165.42086792 C33.9976291 152.71304555 30.2183572 139.98737057 26.61523438 127.20092773 C24.74367344 120.56443302 22.78668698 113.96254151 20.75 107.375 C13.18962622 82.79594251 5.93043693 58.07347638 0.1796875 33.00390625 C-1.09866846 27.45491779 -2.65696875 22.01380449 -4.3359375 16.57421875 C-5 14 -5 14 -5 10 C-16.30534176 14.35630748 -27.4117942 19.03918783 -38.4375 24.0625 C-54.45084809 31.33582841 -70.73384695 37.90142322 -87.06445312 44.42431641 C-90.17878666 45.66910966 -93.28699674 46.9279201 -96.390625 48.19921875 C-125.00553917 59.88874191 -154.21058282 70.19967102 -183.21557617 80.86642456 C-198.39071822 86.44745296 -213.55457245 92.05546144 -228.6875 97.75 C-247.50847593 104.83140243 -266.36780849 111.80689086 -285.23443604 118.76564026 C-291.96359333 121.24776905 -298.69124962 123.73392796 -305.41796875 126.22265625 C-334.29347163 136.9049617 -363.19059189 147.52782603 -392.09362793 158.13537598 C-399.29179019 160.77719272 -406.48973672 163.41959639 -413.6875 166.0625 C-414.70468109 166.43593536 -415.72186218 166.80937073 -416.76986694 167.19412231 C-427.64159458 171.18589368 -438.51068201 175.18456268 -449.37109375 179.20703125 C-450.30034164 179.55118576 -451.22958954 179.89534027 -452.18699646 180.24992371 C-453.11569046 180.59388687 -454.04438446 180.93785004 -455.0012207 181.29223633 C-479.93345108 190.52636567 -504.91498698 199.62171771 -529.90583801 208.69584656 C-551.40112063 216.50211342 -572.85476023 224.42012195 -594.30233765 232.35632324 C-604.65458434 236.18671257 -615.00875694 240.01127135 -625.37890625 243.79296875 C-626.20952072 244.09588333 -627.04013519 244.39879791 -627.8959198 244.71089172 C-631.21564094 245.9212946 -634.5354286 247.13151483 -637.85531616 248.34146118 C-648.06274291 252.06414032 -658.2518601 255.83246483 -668.421875 259.65625 C-669.47956085 260.05385025 -670.5372467 260.4514505 -671.62698364 260.86109924 C-676.75239333 262.78908569 -681.8761193 264.72140426 -686.99755859 266.65991211 C-697.61148484 270.66769656 -708.26352558 274.52503604 -718.98907471 278.22419739 C-726.32513753 280.75523975 -733.6102249 283.39522987 -740.875 286.125 C-749.56908026 289.3720222 -758.27717684 292.54785875 -767.05859375 295.55078125 C-770.267613 296.68843094 -773.38734916 297.99601039 -776.52075195 299.32714844 C-782.48636322 301.82133552 -788.51489643 304.05848706 -794.609375 306.21484375 C-796.81071313 307.00067374 -799.01187954 307.78698493 -801.21289062 308.57373047 C-802.33381104 308.97372253 -803.45473145 309.3737146 -804.60961914 309.78582764 C-813.40424056 312.93538125 -822.17476246 316.1519771 -830.94921875 319.35717773 C-834.26248741 320.56705994 -837.57654865 321.77475412 -840.890625 322.98242188 C-854.30389953 327.87712834 -867.6727372 332.87569039 -881 338 C-880.40146916 341.23727656 -879.6449233 344.29761389 -878.57983398 347.41162109 C-878.14585548 348.68808754 -878.14585548 348.68808754 -877.70310974 349.99034119 C-877.38729446 350.90876297 -877.07147919 351.82718475 -876.74609375 352.7734375 C-876.41428604 353.74652359 -876.08247833 354.71960968 -875.74061584 355.72218323 C-875.02102786 357.83112772 -874.29997748 359.93957368 -873.57763672 362.0475769 C-872.41601389 365.43770596 -871.25832814 368.82915802 -870.1015625 372.22094727 C-867.083883 381.06604228 -864.05824234 389.90840962 -861.03173828 398.75048828 C-843.23233446 450.75984477 -825.75559595 502.89136673 -808.89801025 555.21417236 C-807.92326328 558.23805439 -806.94685006 561.26139528 -805.97021484 564.28466797 C-792.36663526 606.40501773 -778.88412981 648.56737018 -765.85644531 690.86987305 C-763.27166836 699.22354417 -760.54357962 707.52556507 -757.73583984 715.80688477 C-755.73707473 721.71164589 -753.85801807 727.64408206 -752.03833008 733.60644531 C-750.98728173 737.04156689 -749.91846322 740.47065032 -748.84375 743.8984375 C-748.46718262 745.09976318 -748.09061523 746.30108887 -747.70263672 747.53881836 C-747.50732361 748.16174774 -747.3120105 748.78467712 -747.11077881 749.42648315 C-743.24958667 761.74452337 -739.43369562 774.0758546 -735.64819336 786.4173584 C-730.26320661 803.96915055 -724.76154697 821.47715009 -719.06542969 838.93081665 C-717.85474582 842.64093053 -716.64570896 846.35157948 -715.4375 850.0625 C-715.18840881 850.82735718 -714.93931763 851.59221436 -714.68267822 852.38024902 C-709.80175234 867.38438903 -705.0897401 882.439627 -700.40090942 897.50473022 C-696.62082734 909.64901623 -692.81103308 921.78028851 -688.875 933.875 C-684.96838505 945.88216799 -681.21760454 957.93323896 -677.5 970 C-673.43083931 983.20699194 -669.29526993 996.38552487 -665.01953125 1009.52734375 C-660.92284623 1022.15661478 -656.96419568 1034.82862338 -653 1047.5 C-648.63376231 1061.45405429 -644.26096395 1075.40447408 -639.75 1089.3125 C-636.19885892 1100.26425552 -632.68196979 1111.22628652 -629.20324707 1122.20126343 C-628.65472101 1123.93061614 -628.10517407 1125.65964541 -627.55456543 1127.38833618 C-626.79136562 1129.78535 -626.03188983 1132.18351171 -625.2734375 1134.58203125 C-624.92739975 1135.66550842 -624.92739975 1135.66550842 -624.57437134 1136.77087402 C-623 1141.77130807 -623 1141.77130807 -623 1144 C-629.93 1144 -636.86 1144 -644 1144 C-644.84046875 1141.18082031 -645.6809375 1138.36164063 -646.546875 1135.45703125 C-650.02508843 1123.83915706 -653.62717115 1112.26094956 -657.25 1100.6875 C-657.58036255 1099.63099243 -657.9107251 1098.57448486 -658.25109863 1097.48596191 C-662.40084618 1084.21864185 -666.59442172 1070.96796222 -670.88769531 1057.74633789 C-675.32312269 1044.05980029 -679.65929189 1030.34181191 -684 1016.625 C-684.20261066 1015.98481304 -684.40522133 1015.34462608 -684.61397171 1014.68503952 C-689.39861379 999.56673235 -694.17583572 984.4460842 -698.94921875 969.32421875 C-699.35393192 968.04219539 -699.75864586 966.76017228 -700.1633606 965.47814941 C-702.06355296 959.45852588 -703.96312034 953.43870668 -705.86132812 947.41845703 C-709.19487985 936.85060486 -712.54512338 926.28865876 -715.93359375 915.73828125 C-720.91910305 900.20166217 -725.73759355 884.61288307 -730.56738281 869.02734375 C-735.5699486 852.88758622 -740.65863349 836.77938896 -745.863204 820.70361423 C-746.07044629 820.06343326 -746.27768858 819.42325228 -746.49121094 818.76367188 C-746.80216123 817.80313227 -746.80216123 817.80313227 -747.11939335 816.82318783 C-750.88963111 805.1673603 -754.59430759 793.49043051 -758.30175018 781.81451035 C-758.95062386 779.77117226 -759.59984407 777.72794449 -760.24908447 775.6847229 C-765.79842407 758.21595927 -771.31187185 740.73764283 -776.57788086 723.1809082 C-778.79883824 715.80499435 -781.14706865 708.48592649 -783.60075378 701.18519592 C-786.89660035 691.36413988 -790.03991301 681.49436958 -793.1875 671.625 C-793.51259552 670.60686218 -793.83769104 669.58872437 -794.17263794 668.53973389 C-798.99014063 653.44339176 -803.69401339 638.31632706 -808.29443359 623.15258789 C-810.73804 615.10191558 -813.22697685 607.068951 -815.8125 599.0625 C-825.66116765 568.50494357 -835.00681034 537.78882863 -844.3125 507.0625 C-844.52189713 506.37116596 -844.73129425 505.67983192 -844.94703674 504.96754837 C-853.56021138 476.52757007 -862.12965009 448.07505863 -870.5 419.5625 C-870.81982849 418.47389679 -871.13965698 417.38529358 -871.46917725 416.26370239 C-881.98140092 380.4828018 -881.98140092 380.4828018 -887 363 C-887.28085449 362.02240723 -887.56170898 361.04481445 -887.85107422 360.03759766 C-888.59367725 357.44323863 -889.32998404 354.84722259 -890.0625 352.25 C-890.26697754 351.53384521 -890.47145508 350.81769043 -890.68212891 350.07983398 C-891.46313892 347.27786355 -892 344.92662172 -892 342 C-896.41698674 343.60328595 -900.83354804 345.20774167 -905.25 346.8125 C-905.95883331 347.06999023 -906.66766663 347.32748047 -907.39797974 347.59277344 C-917.462026 351.24925365 -927.52048562 354.9207239 -937.57421875 358.60546875 C-986.61494409 376.57710249 -1035.77046798 393.72134951 -1085.75 408.9375 C-1086.74511597 409.24081238 -1087.74023193 409.54412476 -1088.76550293 409.85662842 C-1091.56658345 410.70869719 -1094.36887697 411.55660661 -1097.171875 412.40234375 C-1097.9966333 412.65258804 -1098.8213916 412.90283234 -1099.67114258 413.16065979 C-1103.4277127 414.28717051 -1107.1288607 415.32909954 -1111 416 C-1110.62230469 416.91652344 -1110.24460937 417.83304688 -1109.85546875 418.77734375 C-1105.24423021 430.19482785 -1101.32537512 441.82226296 -1097.46923828 453.51025391 C-1096.98609468 454.97431424 -1096.50285771 456.43834377 -1096.01953125 457.90234375 C-1095.77537476 458.6419635 -1095.53121826 459.38158325 -1095.27966309 460.14361572 C-1092.70526288 467.92318243 -1090.04750611 475.67367648 -1087.38381958 483.42303467 C-1081.55572555 500.37871061 -1075.84382981 517.37062452 -1070.1971283 534.38748169 C-1068.54368495 539.36885884 -1066.88190471 544.34738375 -1065.21484375 549.32421875 C-1053.28387816 584.96138252 -1041.58251127 620.67834016 -1030.10119629 656.46292114 C-1028.45846971 661.5803175 -1026.80666255 666.69475002 -1025.15328979 671.80871582 C-1015.5716598 701.45190968 -1006.15466837 731.14151738 -996.90087891 760.88842773 C-992.31508888 775.6269641 -987.67287485 790.34529015 -982.94989014 805.04043579 C-981.38942135 809.90237444 -979.839342 814.76761724 -978.2890625 819.6328125 C-977.6827236 821.53459457 -977.07635966 823.43636866 -976.4699707 825.33813477 C-975.53130137 828.28227848 -974.59266612 831.22643304 -973.65414429 834.17062378 C-970.43617903 844.26379956 -967.21683183 854.35636201 -963.94921875 864.43359375 C-963.71964478 865.14213501 -963.4900708 865.85067627 -963.25354004 866.58068848 C-962.22080618 869.76668649 -961.18531561 872.95171296 -960.14501953 876.13525391 C-957.94611097 882.9046739 -955.92691717 889.70511883 -953.99389648 896.55493164 C-952.40721473 902.05472684 -950.64454649 907.49430791 -948.875 912.9375 C-948.48957031 914.13060791 -948.10414063 915.32371582 -947.70703125 916.55297852 C-946.47378647 920.36944481 -945.23740721 924.18488201 -944 928 C-942.33146271 933.14522885 -940.66425932 938.29088565 -939 943.4375 C-938.79124237 944.0828772 -938.58248474 944.72825439 -938.36740112 945.39318848 C-934.94044518 955.99625722 -931.61403094 966.62829906 -928.33081055 977.27685547 C-925.72076555 985.72617646 -923.03477305 994.14872117 -920.3125 1002.5625 C-917.81310255 1010.28974192 -915.35943283 1018.02261871 -913.0625 1025.8125 C-910.74679073 1033.64502267 -908.27266333 1041.41929864 -905.75 1049.1875 C-901.08451801 1063.56413766 -896.50762451 1077.96832047 -891.95324707 1092.38052368 C-891.16108335 1094.88686558 -890.36837304 1097.39303479 -889.57507324 1099.89901733 C-884.93284688 1114.56621868 -880.37908985 1129.25195059 -876 1144 C-883.26 1144 -890.52 1144 -898 1144 C-900.46720699 1137.83198252 -902.77496155 1131.90372735 -904.6640625 1125.58203125 C-904.89750366 1124.81497864 -905.13094482 1124.04792603 -905.37145996 1123.25762939 C-905.86873047 1121.62298311 -906.36419958 1119.98778788 -906.85797119 1118.3520813 C-908.17640657 1113.98682957 -909.50996611 1109.62620731 -910.84375 1105.265625 C-911.11156281 1104.38943008 -911.37937561 1103.51323517 -911.65530396 1102.61048889 C-914.06835672 1094.73575836 -916.57760465 1086.89464575 -919.125 1079.0625 C-922.48463262 1068.72851646 -925.7744245 1058.37635441 -929 1048 C-932.09014192 1038.06473679 -935.22653116 1028.14706552 -938.4375 1018.25 C-943.44017689 1002.81240504 -948.34986067 987.34539368 -953.25 971.875 C-953.45599571 971.22472462 -953.66199142 970.57444923 -953.87422943 969.90446854 C-959.78129552 951.25524176 -965.63442292 932.5898942 -971.42504883 913.90414429 C-975.35242724 901.23417685 -979.3569268 888.5929149 -983.45532227 875.97729492 C-986.58492615 866.33192666 -989.61915265 856.65924888 -992.62911987 846.97610474 C-995.6265511 837.33783427 -998.69288097 827.72459938 -1001.8125 818.125 C-1005.81987905 805.783804 -1009.67976568 793.40031604 -1013.5 781 C-1017.16009241 769.12255861 -1020.84553204 757.2576049 -1024.6875 745.4375 C-1038.15811111 703.93701907 -1051.04940036 662.25793154 -1063.78385925 620.52705383 C-1066.80037975 610.64423322 -1069.83910536 600.76838676 -1072.88619995 590.8949585 C-1082.29334704 560.3999323 -1091.31649944 529.7949133 -1100.30436707 499.17417908 C-1102.15358062 492.87594561 -1104.00859285 486.57947248 -1105.87109375 480.28515625 C-1109.99044659 466.35727857 -1114.05198475 452.41502427 -1118 438.4375 C-1118.19035828 437.76619049 -1118.38071655 437.09488098 -1118.57684326 436.40322876 C-1124 417.25294776 -1124 417.25294776 -1124 411 C-1123.12492798 410.66693848 -1123.12492798 410.66693848 -1122.23217773 410.32714844 C-1115.32972338 407.64018693 -1108.70967176 404.51026225 -1102.0625 401.25 C-1092.49623197 396.61630626 -1082.88420388 392.27657239 -1073.04833984 388.25390625 C-1069.28251257 386.70486822 -1065.52587901 385.13435781 -1061.76953125 383.5625 C-1053.22438397 379.98772781 -1044.67211105 376.43031894 -1036.11700439 372.87945557 C-1034.17487529 372.07264748 -1032.23350956 371.26403999 -1030.29248047 370.45458984 C-1013.29027055 363.3750293 -996.11142009 356.8598663 -978.82675171 350.51152039 C-973.46695714 348.54257574 -968.11272239 346.55911274 -962.76171875 344.56640625 C-962.0061116 344.28503815 -961.25050446 344.00367004 -960.47200012 343.71377563 C-958.95979233 343.15063013 -957.44759034 342.58746902 -955.93539429 342.02429199 C-944.15504584 337.63898735 -932.36190676 333.29208487 -920.54296875 329.01171875 C-912.57835318 326.12573408 -904.62731257 323.20258595 -896.67480469 320.28344727 C-895.38867314 319.81135723 -894.10254032 319.33927066 -892.81640625 318.8671875 C-892.17448334 318.63154587 -891.53256042 318.39590424 -890.8711853 318.15312195 C-886.29975198 316.47552944 -881.72641086 314.80320853 -877.15234375 313.1328125 C-862.07771732 307.6252034 -847.04984429 302.00903114 -832.06640625 296.2578125 C-824.95980454 293.53743593 -817.82021763 290.92696079 -810.64453125 288.39453125 C-809.97649475 288.15856735 -809.30845825 287.92260345 -808.62017822 287.67948914 C-805.25776751 286.49257524 -801.89400427 285.30974831 -798.52783203 284.13354492 C-792.04163301 281.85605853 -785.63962402 279.4677949 -779.28515625 276.84375 C-773.91546846 274.63601937 -768.59220674 273.05187281 -762.93652344 271.75244141 C-757.50236428 270.36001719 -752.34060099 268.23292812 -747.125 266.1875 C-744.58271649 265.20650015 -742.03986496 264.22712175 -739.49609375 263.25 C-738.8267128 262.99224289 -738.15733185 262.73448578 -737.46766663 262.46891785 C-728.74151983 259.11733426 -719.96295116 255.90719903 -711.1875 252.6875 C-708.07670386 251.54589689 -704.96601104 250.40401335 -701.85546875 249.26171875 C-701.10581848 248.98658951 -700.35616821 248.71146027 -699.58380127 248.42799377 C-694.72020038 246.64039621 -689.86774093 244.82495483 -685.01953125 242.99609375 C-677.03031434 239.98679579 -668.99399322 237.11442044 -660.95217896 234.24926758 C-641.91124491 227.46066381 -622.97081525 220.429342 -604.06735229 213.26782227 C-593.59468601 209.30293387 -583.06958675 205.51313812 -572.49731445 201.82275391 C-564.65813619 199.08313418 -556.90423573 196.20626845 -549.20768738 193.08709717 C-544.4336244 191.15662817 -539.62638132 189.40070891 -534.75 187.75 C-526.12647399 184.7748545 -517.56810221 181.64417835 -509.01928711 178.46142578 C-501.18653539 175.54743499 -493.34633351 172.65458602 -485.5 169.77734375 C-484.47518524 169.40152161 -483.45037048 169.02569946 -482.39450073 168.63848877 C-480.27519704 167.86136226 -478.15588334 167.08426302 -476.03656006 166.30718994 C-460.73309281 160.69575445 -445.43856457 155.06497276 -430.1875 149.3125 C-421.5299204 146.04760222 -412.85850045 142.85673838 -404.10961914 139.84521484 C-395.40403025 136.83000936 -386.76727466 133.62852513 -378.125 130.4375 C-377.31254822 130.13752106 -376.50009644 129.83754211 -375.6630249 129.5284729 C-371.46671768 127.97862465 -367.27086111 126.42756032 -363.07519531 124.87597656 C-354.88595599 121.84805883 -346.69287041 118.83057545 -338.5 115.8125 C-336.8892415 115.21899424 -335.27848304 114.62548838 -333.66772461 114.03198242 C-323.16378302 110.16222237 -312.65668813 106.30119064 -302.14477539 102.453125 C-295.35771637 99.96778579 -288.57344605 97.47511937 -281.7926178 94.9728241 C-259.50575309 86.74882063 -237.19532938 78.60760092 -214.79833984 70.68798828 C-202.47344742 66.32806027 -190.18368992 61.88887792 -177.9375 57.3125 C-134.25576188 41.00378926 -90.3254272 25.48080006 -45.67427063 12.0184021 C-38.4927155 9.85265798 -31.32716002 7.63664466 -24.16485596 5.40817261 C-22.30597728 4.82991339 -20.4466959 4.25294923 -18.58740234 3.67602539 C-5.01792164 -0.53763446 -5.01792164 -0.53763446 0 0 Z " fill="#727272" transform="translate(1220,306)"/>
<path d="M0 0 C0.66 0.66 1.32 1.32 2 2 C1.96810164 3.97769822 1.93105275 5.95771354 1.77734375 7.9296875 C2.07425128 10.69040661 3.30861563 11.79619167 5 14 C6.23878692 16.61197054 7.3935996 19.20781014 8.5 21.875 C8.83604248 22.67711914 9.17208496 23.47923828 9.51831055 24.30566406 C13.36941192 33.65623852 16.80154698 43.16763988 20.23046875 52.67919922 C22.73045243 59.65006865 22.73045243 59.65006865 25.52734375 66.50390625 C27.68833705 71.6341158 29.36451127 76.91457296 31.09860229 82.20205688 C32.2110475 85.59276069 33.33390386 88.98000969 34.45703125 92.3671875 C34.78967735 93.37103233 34.78967735 93.37103233 35.12904358 94.39515686 C36.84269667 99.55472933 38.61852964 104.68929895 40.4375 109.8125 C45.234273 123.38022894 49.73692525 137.04843639 54.24560547 150.71398926 C54.75201876 152.24855263 55.25886051 153.78297466 55.76611328 155.31726074 C71.27324335 202.22314548 71.27324335 202.22314548 76.9375 225.9375 C80.53647107 240.85215489 85.3112318 255.72457715 90.50585938 270.15332031 C91.36781568 273.37458388 90.92585027 275.85210909 90 279 C86.85437051 282.99699408 83.02904334 284.41836047 78.36328125 286.0390625 C77.59210968 286.31739929 76.82093811 286.59573608 76.02639771 286.88250732 C73.45863928 287.80689147 70.8856162 288.7156481 68.3125 289.625 C66.49506626 290.27688255 64.67809942 290.93006807 62.86157227 291.58447266 C58.96740485 292.98674915 55.07156504 294.38424346 51.17480469 295.77929688 C41.62222624 299.20667114 32.09962598 302.7159818 22.57528687 306.22088623 C19.53627944 307.3386678 16.49641954 308.45409806 13.45629883 309.56884766 C3.48790414 313.22688939 -6.46550796 316.92110033 -16.40234375 320.6640625 C-23.76426723 323.43555056 -31.14179568 326.14111468 -38.56881714 328.73269653 C-47.43965163 331.83646411 -56.24461489 335.12072261 -65.05688477 338.38623047 C-68.06154229 339.49964511 -71.06684161 340.61131245 -74.07226562 341.72265625 C-79.71648648 343.81068835 -85.35894485 345.90343098 -91 348 C-91.77214844 348.28693726 -92.54429687 348.57387451 -93.33984375 348.86950684 C-102.38907786 352.23618179 -111.39711011 355.69678526 -120.375 359.25 C-130.32438139 363.17324087 -140.29131375 367.04676659 -150.27905273 370.87133789 C-157.2220555 373.53494037 -164.15314271 376.22743798 -171.078125 378.9375 C-171.96949661 379.2861763 -172.86086823 379.6348526 -173.7792511 379.99409485 C-178.21148584 381.72818202 -182.64286401 383.46441078 -187.07299805 385.20385742 C-196.05297155 388.72311417 -205.05757636 392.15511601 -214.11550903 395.46873474 C-221.18609392 398.05753472 -228.21649927 400.74446395 -235.24200439 403.45275879 C-274.05066156 418.39597371 -313.21859732 432.52201097 -352.6875 445.625 C-353.79282074 445.99241302 -353.79282074 445.99241302 -354.92047119 446.36724854 C-361.75245116 448.63581405 -368.59075502 450.87985886 -375.45703125 453.04296875 C-384.17516733 455.81318298 -391.63121446 458.63011604 -399.37109375 463.5625 C-402.96514033 465.5277439 -406.35403749 466.14268133 -410.38671875 466.65625 C-413.72847913 467.09582386 -416.89097813 467.99243303 -420.125 468.92578125 C-422 469 -422 469 -423.55801392 467.81210327 C-425.3689962 465.53629288 -425.56592984 463.95250354 -425.94677734 461.08056641 C-426.96460663 454.71883985 -428.81089992 448.81101533 -430.8515625 442.7109375 C-431.22928802 441.56823395 -431.60701355 440.4255304 -431.9961853 439.24819946 C-432.79429121 436.84177958 -433.59624436 434.43663257 -434.40185547 432.03271484 C-435.6132349 428.41018257 -436.80535578 424.78170521 -437.99609375 421.15234375 C-441.82934372 409.58820534 -445.87437261 398.40193238 -451.29345703 387.48486328 C-453.56595441 382.84428708 -455.38330978 378.10914255 -457.125 373.25 C-457.87367752 371.20394269 -458.62378053 369.15840664 -459.375 367.11328125 C-459.78363281 365.99775879 -460.19226563 364.88223633 -460.61328125 363.73291016 C-462.1893602 359.49026101 -463.80973213 355.26598616 -465.4375 351.04296875 C-476.96235995 321.08288678 -476.96235995 321.08288678 -480.69580078 307.61499023 C-482.11185464 302.57023474 -483.86246816 297.74761867 -485.8515625 292.90234375 C-489.13598099 284.87810716 -491.80779087 276.71501046 -494.375 268.4375 C-494.72634003 267.31471649 -494.72634003 267.31471649 -495.08477783 266.16925049 C-499.18323339 253.05523161 -502.82509772 239.85640257 -506.27734375 226.55859375 C-508.05817243 219.70629611 -510.0281042 212.92463401 -512.08984375 206.15234375 C-515.43062089 194.58149759 -515.43062089 194.58149759 -514 190 C-503.79471305 179.05381399 -484.69394735 173.46173657 -470.9375 168.25 C-469.36157645 167.6455311 -467.78598033 167.04020795 -466.21069336 166.43408203 C-462.23362821 164.90544995 -458.25349375 163.38500902 -454.27233887 161.86706543 C-448.19751375 159.54907011 -442.12899845 157.21468702 -436.0625 154.875 C-435.43078888 154.63173981 -434.79907776 154.38847961 -434.14822388 154.1378479 C-424.83055663 150.54565392 -415.58825706 146.79047455 -406.375 142.9375 C-393.25086237 137.45184345 -379.99989979 132.36319107 -366.67773438 127.38085938 C-362.88985126 125.95864304 -359.10803825 124.5213434 -355.328125 123.078125 C-354.0462302 122.58925771 -352.76432921 122.10040667 -351.48242188 121.61157227 C-349.09786324 120.70176519 -346.71370762 119.79090067 -344.33007812 118.87866211 C-337.53253856 116.2918868 -330.70332013 113.81937206 -323.84025574 111.41394043 C-318.08784467 109.39408829 -312.35556159 107.32215085 -306.62890625 105.23046875 C-305.72766022 104.90151108 -304.82641418 104.57255341 -303.89785767 104.23362732 C-300.20680711 102.88574017 -296.5161431 101.53680891 -292.82641602 100.18530273 C-279.80039435 95.41627648 -266.72778362 90.80258437 -253.61303711 86.28344727 C-242.72479182 82.52992677 -231.86348235 78.69945805 -221 74.875 C-219.83779938 74.46614563 -218.67559875 74.05729126 -217.47817993 73.63604736 C-203.0375936 68.55523451 -188.60891665 63.44303506 -174.19909668 58.27563477 C-143.43646831 47.24444779 -112.54178806 36.59039917 -81.625 26 C-80.84565094 25.73300293 -80.06630188 25.46600586 -79.26333618 25.19091797 C-70.60761181 22.22805501 -61.93908725 19.31227489 -53.24584961 16.4609375 C-41.12413817 12.48208926 -29.18246785 8.14450867 -17.28686523 3.54052734 C-16.13130127 3.09402832 -14.9757373 2.6475293 -13.78515625 2.1875 C-12.76301025 1.78917969 -11.74086426 1.39085937 -10.68774414 0.98046875 C-3.98975076 -1.46290861 -3.98975076 -1.46290861 0 0 Z M-14.41796875 11.9765625 C-16.05475586 12.61271484 -16.05475586 12.61271484 -17.72460938 13.26171875 C-18.86736328 13.71160156 -20.01011719 14.16148437 -21.1875 14.625 C-23.40985338 15.49296338 -25.63251404 16.36014036 -27.85546875 17.2265625 C-29.00781006 17.67668701 -30.16015137 18.12681152 -31.34741211 18.59057617 C-35.20512098 20.07915002 -39.07724753 21.52451899 -42.953125 22.96484375 C-49.90872706 25.55665575 -56.7854344 28.31799193 -63.64758301 31.14880371 C-80.38174043 38.04109613 -97.26051991 44.5383027 -114.16487122 50.99897766 C-123.38230721 54.52384425 -132.58427038 58.0885424 -141.78704834 61.65145874 C-156.20815834 67.23371885 -170.64015353 72.78388383 -185.10449219 78.25317383 C-192.70299882 81.1264895 -200.29314629 84.02051553 -207.875 86.9375 C-208.93460938 87.34516602 -209.99421875 87.75283203 -211.0859375 88.17285156 C-216.76434794 90.36040787 -222.43868258 92.55813835 -228.109375 94.765625 C-247.06155438 102.1376477 -266.08171371 109.31795988 -285.13220215 116.43193054 C-289.81667023 118.18173507 -294.49799256 119.93944669 -299.17578125 121.70703125 C-308.64136185 125.28224548 -318.12076706 128.77516301 -327.68847656 132.06762695 C-333.07539773 133.93654813 -338.42534759 135.89402229 -343.76171875 137.90234375 C-363.93999467 145.49283795 -384.23659558 152.54359928 -404.72344971 159.25390625 C-411.61132714 161.51127009 -418.4946447 163.7823201 -425.375 166.0625 C-426.12342163 166.31004028 -426.87184326 166.55758057 -427.64294434 166.81262207 C-438.07517543 170.26894467 -448.39866634 173.95221656 -458.6875 177.8125 C-473.26370491 183.26863102 -488.50678948 188.85398098 -504 191 C-503.38994483 196.98054086 -501.08483384 202.12369965 -498.8125 207.625 C-497.89966696 209.87704744 -496.9882954 212.12968763 -496.078125 214.3828125 C-495.3365918 216.21440918 -495.3365918 216.21440918 -494.58007812 218.08300781 C-483.52833093 245.44239889 -473.59184213 272.98235278 -464.83479309 301.16435242 C-462.8599382 307.4961326 -460.75001085 313.77967323 -458.625 320.0625 C-452.80368876 337.44664006 -447.48295035 354.91397641 -442.75 372.625 C-442.42056396 373.85774658 -442.09112793 375.09049316 -441.75170898 376.3605957 C-440.28082241 381.93085933 -438.88786097 387.48856342 -437.6953125 393.125 C-435.5795102 402.43255009 -432.26347374 411.37446255 -429.125 420.375 C-428.50588403 422.16384583 -427.88739102 423.95290739 -427.26953125 425.7421875 C-426.364753 428.36227077 -425.45960118 430.98221321 -424.55181885 433.60125732 C-421.97300263 441.04739355 -419.46871447 448.51666459 -417 456 C-414.07055317 455.38438012 -412.5110419 454.69821164 -409.8671875 453.06640625 C-405.50740574 450.49563839 -401.05238288 449.83367054 -396.125 448.9375 C-383.85498684 446.44453502 -373.07291594 441.48192855 -361.76464844 436.24804688 C-358.14519768 434.61411608 -354.48074852 433.16957424 -350.75 431.8125 C-350.12416016 431.58449707 -349.49832031 431.35649414 -348.85351562 431.12158203 C-347.57371769 430.65754066 -346.29343727 430.19482795 -345.01269531 429.73339844 C-341.20062723 428.34433336 -337.4147482 426.88610092 -333.625 425.4375 C-332.76173096 425.10878906 -331.89846191 424.78007813 -331.0090332 424.44140625 C-326.12513259 422.58070921 -321.24509908 420.71033077 -316.36923218 418.82867432 C-295.94843723 410.94940576 -275.43567397 403.37366527 -254.82385254 396.00964355 C-251.74629014 394.90928828 -248.66946614 393.80688618 -245.59277344 392.70410156 C-220.28386817 383.63286454 -194.96555078 374.59145105 -169.57763672 365.7434082 C-162.28228381 363.20057173 -154.99035322 360.6499415 -147.71484375 358.05078125 C-147.05569473 357.81536118 -146.39654572 357.5799411 -145.71742249 357.33738708 C-144.41112093 356.87072011 -143.10483111 356.40402029 -141.79855347 355.93728638 C-140.8463945 355.59707962 -140.8463945 355.59707962 -139.875 355.25 C-139.24836456 355.02601532 -138.62172913 354.80203064 -137.97610474 354.57125854 C-128.6522839 351.24317102 -119.28083019 348.08765586 -109.875 345 C-98.90333743 341.38906406 -88.09216981 337.46611285 -77.3137207 333.31640625 C-67.60728207 329.58521502 -57.84876085 326.01613861 -48.0625 322.5 C-46.51268111 321.94266645 -44.96287641 321.38529342 -43.41308594 320.82788086 C-41.11763545 320.00231985 -38.82218424 319.17676112 -36.52664185 318.35145569 C2.76216278 304.21759367 41.86637185 289.55678617 81 275 C80.44496606 268.84544644 79.04651264 263.54444732 76.9375 257.75 C76.62949463 256.88810059 76.32148926 256.02620117 76.00415039 255.13818359 C71.76014958 243.39130055 67.09293548 231.81559603 62.12109375 220.359375 C58.89942347 212.86150434 55.97461275 205.27085217 53.125 197.625 C52.73465576 196.58153915 52.73465576 196.58153915 52.33642578 195.51699829 C48.36960799 184.89938503 44.6434798 174.22445055 41.125 163.44921875 C38.75569061 156.20593452 36.27185243 149.00281652 33.79074097 141.79727173 C3.19505488 52.91025613 3.19505488 52.91025613 -6 10 C-9.34737 10 -11.30971621 10.75862025 -14.41796875 11.9765625 Z " fill="#767676" transform="translate(1088,554)"/>
<path d="M0 0 C0.88945313 0.50660156 1.77890625 1.01320313 2.6953125 1.53515625 C12.73558625 7.45024789 19.15835417 14.342473 23.74609375 25.0078125 C24.25645676 26.17636024 24.25645676 26.17636024 24.77713013 27.36851501 C28.53961515 36.08495479 31.96593432 44.93132809 35.32958984 53.80786133 C36.38717016 56.59456817 37.45685262 59.37643392 38.52734375 62.15820312 C39.21426595 63.96066164 39.9004899 65.76338645 40.5859375 67.56640625 C41.05777969 68.79007652 41.05777969 68.79007652 41.53915405 70.03846741 C43.52145147 75.30529919 44.88985384 80.48131253 46 86 C44.95771744 86.02528778 44.95771744 86.02528778 43.89437866 86.05108643 C-3.00862466 87.22534684 -44.39051843 95.51501819 -78 130 C-79.33198312 131.33468218 -80.66506592 132.66826934 -82 134 C-87.48207752 121.19857302 -92.69467855 108.31152717 -97.7019043 95.31713867 C-98.82435338 92.40676564 -99.95395037 89.49923204 -101.08398438 86.59179688 C-101.81292776 84.70589445 -102.5414586 82.8198325 -103.26953125 80.93359375 C-103.60080521 80.08236435 -103.93207916 79.23113495 -104.27339172 78.35411072 C-109.57817488 64.53400284 -112.70898043 52.21898366 -107.28125 37.77734375 C-105.33394663 33.55620747 -103.09074196 29.49695376 -100 26 C-99.34 26 -98.68 26 -98 26 C-97.67 25.01 -97.34 24.02 -97 23 C-87.41752703 13.62249972 -72.97209477 10.07398856 -60.62963867 5.80615234 C-57.93792831 4.87514814 -55.24906276 3.93627817 -52.56054688 2.99609375 C-50.82047302 2.39016382 -49.08024378 1.78467991 -47.33984375 1.1796875 C-46.55101303 0.90462372 -45.76218231 0.62955994 -44.94944763 0.34616089 C-29.04545824 -5.14381007 -15.08927569 -9.52355925 0 0 Z " fill="#707070" transform="translate(1037,649)"/>
<path d="M0 0 C9.66786582 8.5936585 13.77564523 21.40772903 17.70703125 33.359375 C18.32332649 35.2032077 18.32332649 35.2032077 18.95207214 37.08428955 C19.81227245 39.66060353 20.66620824 42.23887857 21.51538086 44.81884766 C22.59781163 48.10612773 23.69505588 51.38823496 24.79686451 54.66906357 C25.85778939 57.83417754 26.90695546 61.00314483 27.95703125 64.171875 C28.34864944 65.33974548 28.74026764 66.50761597 29.14375305 67.71087646 C31.04403886 73.5117015 32.52880048 78.90650172 33 85 C31.99710938 84.84144531 30.99421875 84.68289063 29.9609375 84.51953125 C12.25601588 82.33071463 -8.04686049 82.18596401 -25 88 C-26.01416992 88.33902344 -27.02833984 88.67804688 -28.07324219 89.02734375 C-53.58058938 97.7626359 -74.96648495 111.09294744 -95 129 C-98.52322534 125.82888384 -99.51609999 122.11330835 -100.890625 117.6953125 C-101.15633301 116.86750275 -101.42204102 116.03969299 -101.69580078 115.1867981 C-102.55562462 112.50213869 -103.4028126 109.81367072 -104.25 107.125 C-104.83462827 105.29232913 -105.42024067 103.45997191 -106.00683594 101.62792969 C-106.87605029 98.91247569 -107.74454736 96.19681562 -108.60943604 93.47998047 C-111.02566033 85.89061906 -113.52887588 78.33367201 -116.08300781 70.78955078 C-121.75760991 53.94795648 -118.4900369 40.76597424 -111.01171875 25.19921875 C-108.78252751 21.6541554 -106.34930638 19.40406601 -103 17 C-102.38237793 16.5263501 -101.76475586 16.0527002 -101.12841797 15.56469727 C-94.44347711 10.72433678 -86.98377028 7.97968298 -79.3125 5.125 C-77.9353389 4.60387276 -76.55846982 4.08197317 -75.18188477 3.55932617 C-71.76485736 2.26578932 -68.34257664 0.98691365 -64.91784668 -0.28607178 C-63.11358044 -0.9577191 -61.31112134 -1.63421527 -59.50878906 -2.31103516 C-56.48803288 -3.44484947 -53.46406619 -4.56929893 -50.4375 -5.6875 C-49.55940674 -6.01411621 -48.68131348 -6.34073242 -47.77661133 -6.67724609 C-30.65698931 -12.89917619 -14.50838051 -11.07101036 0 0 Z " fill="#707070" transform="translate(828,732)"/>
</svg>
